<svg xmlns="http://www.w3.org/2000/svg" xmlns:gliffy="http://www.gliffy.com" xmlns:xlink="http://www.w3.org/1999/xlink" width="750" height="700"><rect width="749" height="699" x="0" y="0" fill="#fff" stroke="#000" stroke-width="0"/><g transform="translate(11.25,255.0) rotate(0.0 159.75 159.5)"><defs><linearGradient id="g0" x1="50%" x2="50%" y1="-25%" y2="100%"><stop offset="0%" stop-color="#fff"/><stop offset="100%" stop-color="#999"/></linearGradient></defs><rect style="fill:url(#g0)" width="319.5" height="319" stroke="#333" stroke-width="2"/></g><defs><filter id="colorFilter-009966" filterUnits="objectBoundingBox"><feColorMatrix in="SourceGraphic" type="matrix" values="0.0 0 0 0 0 0 0.6 0 0 0 0 0 0.4 0 0 0 0 0 1 0"/></filter><filter id="colorFilter-006600" filterUnits="objectBoundingBox"><feColorMatrix in="SourceGraphic" type="matrix" values="0.0 0 0 0 0 0 0.4 0 0 0 0 0 0.0 0 0 0 0 0 1 0"/></filter><symbol id="com.gliffy.symbols.basic.skins.fresh.roundedRectangle.layer0" preserveAspectRatio="none" viewBox="0 0 50 50"><rect xmlns="http://www.w3.org/2000/svg" width="50" height="50" x="0" y="0" fill="#FFF" fill-opacity="0"/><path xmlns="http://www.w3.org/2000/svg" fill="#FFF" d="M6.481,50C2.908,50,0,47.093,0,43.519V6.481C0,2.907,2.908,0,6.481,0h37.037C47.093,0,50,2.907,50,6.481 v37.037C50,47.093,47.093,50,43.519,50H6.481z"/></symbol><symbol id="com.gliffy.symbols.basic.skins.fresh.roundedRectangle.layer1" preserveAspectRatio="none" viewBox="0 0 50 50"><rect xmlns="http://www.w3.org/2000/svg" width="50" height="50" x="0" y="0" fill="#FFF" fill-opacity="0"/><path xmlns="http://www.w3.org/2000/svg" fill="#000" fill-opacity=".3" d="M3.077,7.447c0-2.546,2.07-4.63,4.6-4.63h36.8c2.53,0,4.601,2.084,4.601,4.63v36.122c0,3.232-2.9,5.545-5.394,5.545H7.677 c-2.53,0-4.6-2.084-4.6-4.63V7.447z"/></symbol><symbol id="com.gliffy.symbols.basic.skins.fresh.roundedRectangle.layer2" preserveAspectRatio="none" viewBox="0 0 50 50"><rect xmlns="http://www.w3.org/2000/svg" width="50" height="50" x="0" y="0" fill="#FFF" fill-opacity="0"/><linearGradient xmlns="http://www.w3.org/2000/svg" id="SVGID_1_"><stop style="stop-color:#aaa" offset="0"/><stop style="stop-color:#fff" offset="1"/></linearGradient><path xmlns="http://www.w3.org/2000/svg" fill="url(#SVGID_1_)" d="M1.852,6.481c0-2.546,2.083-4.63,4.629-4.63h37.037c2.547,0,4.629,2.084,4.629,4.63v37.037 c0,2.546-2.082,4.63-4.629,4.63H6.481c-2.546,0-4.629-2.084-4.629-4.63V6.481z"/></symbol></defs><g transform="translate(260,11) rotate(0 80 44)"><use xmlns:xlink="http://www.w3.org/1999/xlink" width="160" height="88" x="0" y="0" filter="url(#colorFilter-006600)" xlink:href="#com.gliffy.symbols.basic.skins.fresh.roundedRectangle.layer0"/><use xmlns:xlink="http://www.w3.org/1999/xlink" width="160" height="88" x="0" y="0" xlink:href="#com.gliffy.symbols.basic.skins.fresh.roundedRectangle.layer1"/><use xmlns:xlink="http://www.w3.org/1999/xlink" width="160" height="88" x="0" y="0" filter="url(#colorFilter-009966)" xlink:href="#com.gliffy.symbols.basic.skins.fresh.roundedRectangle.layer2"/></g><defs><linearGradient xmlns:xlink="http://www.w3.org/1999/xlink" id="SVGIDcloud_1_" x1="19.785" x2="104.008" y1="42.217" y2="19.62" gradientUnits="userSpaceOnUse" xlink:actuate="onLoad" xlink:show="other" xlink:type="simple"><stop style="stop-color:#ededee" offset="0"/><stop style="stop-color:#a0a2a4" offset="1"/></linearGradient><symbol id="com.gliffy.newnetwork.home.Network_Cloud" preserveAspectRatio="none" viewBox="0 0 100 65.999"><g id="Layer_1"><rect width="100" height="66" y="0" fill="none"/><path d="M81.644,17.955c-0.969,0-1.912,0.088-2.841,0.222c0.003-0.074,0.008-0.148,0.008-0.222 C78.811,8.039,68.306,0,55.35,0C44.444,0,35.277,5.693,32.647,13.408c-3.467-2.833-8.038-4.572-13.067-4.572 C8.766,8.836,0,16.81,0,26.648c0,7.843,5.583,14.491,13.325,16.867c-0.053,0.137-0.117,0.265-0.167,0.404 c-2.243,6.228,0.845,13.039,6.896,15.215c5.551,1.996,11.661-0.612,14.366-5.865c4.356,6.844,10.278,12.237,20.299,12.699 c12.079,0.557,21.865-6.257,24.808-14.505c0.696,0.074,1.398,0.122,2.117,0.122C91.781,51.585,100,44.056,100,34.77 C100,25.483,91.781,17.955,81.644,17.955z"/></g><g id="Layer_2"><rect width="100" height="66" fill="none"/><path fill="url(#SVGIDcloud_1_)" d="M80.162,19.335c-0.922,0-1.82,0.079-2.703,0.198c0.002-0.066,0.008-0.132,0.008-0.198 c0-10.014-9.674-17.576-22.004-17.576c-11.366,0-19.652,5.25-22.157,13.559c-3.299-2.532-8.275-5.05-13.061-5.05 c-10.292,0-18.358,6.819-18.371,16.836C1.862,37.326,12.798,42.058,14.981,42.539c-2.338,5.261-0.742,12.397,5.854,14.825 c5.234,1.927,11.632-1.333,13.738-6.841C37.957,57.051,46.38,64.2,55.932,64.2c10.316,0,21.094-6.497,22.567-14.313 c0.662,0.066,0.982,0.133,1.663,0.176c10.826,0.679,18.05-7.4,18.05-15.7C98.212,26.063,89.812,19.335,80.162,19.335z"/></g></symbol></defs><g transform="translate(282.0,128.6) rotate(0.0 60.0 44.4)"><use width="120" height="88.8" fill="#036" xlink:href="#com.gliffy.newnetwork.home.Network_Cloud"/><g><text style="text-anchor:middle" x="60" y="-2" transform="translate(0.0,50.4)"><tspan fill="#FFF" font-family="Arial" font-size="14" font-weight="bold" xml:space="preserve">WAN</tspan></text></g></g><g transform="translate(273.0,40.666666666666664) rotate(0.0 70.0 23.333333333333336)"><image width="140" height="41" preserveAspectRatio="none" xlink:href="https://www.python.org/static/community_logos/python-logo-generic.svg"/></g><g><g><text style="text-anchor:middle" x="80.5" y="-2" transform="translate(258.5,17.5) rotate(0.0 80.5 12.5) translate(0.0,9.5)"><tspan fill="#FFF" font-family="Arial" font-size="14" font-weight="bold" xml:space="preserve">https://pypi.org</tspan></text></g></g><g><path fill="none" stroke="red" stroke-dasharray="23 0" stroke-width="2" d="M0.0,3.0 L0.0,7.442968749999998 Q0.0,14.885937499999995 0.0,14.885937499999995 L0.0,14.885937499999995 Q0.0,14.885937499999995 0.0,14.885937499999995 L0.0,29.77187499999999" transform="translate(341.0,98.828125)"/><g transform="translate(341.0,98.828125) translate(0.0,0.0) rotate(90.0)"><polygon fill="#FFF" stroke="red" stroke-width="2" points="2 0 9 -3 9 3"/></g></g><g><path fill="none" stroke="red" stroke-dasharray="23 0" stroke-width="2" d="M0.0,0.0 L0.0,18.174999999999997 Q0.0,28.174999999999997 -10.0,28.174999999999997 L-175.0,28.174999999999997 Q-185.0,28.174999999999997 -185.0,38.175 L-185.0,56.349999999999994" transform="translate(342.0,217.39999999999998)"/></g><g transform="translate(182.0,355.359375) rotate(0.0 58.0 102.640625)"><defs><linearGradient id="g7" x1="50%" x2="50%" y1="-25%" y2="100%"><stop offset="0%" stop-color="#fff"/><stop offset="100%" stop-color="#963"/></linearGradient></defs><path style="fill:url(#g7)" stroke="#990" stroke-width="2" d="M106.0,0 Q116.0,0 116.0,10 L116.0,195.28125 Q116.0,205.28125 106.0,205.28125 L10,205.28125 Q0,205.28125 0,195.28125 L0,10 Q0,0 10,0 Z"/></g><g transform="translate(81.5,266.78125) rotate(0.0 77.5 33.828125)"><defs><linearGradient id="g8" x1="50%" x2="50%" y1="-25%" y2="100%"><stop offset="0%" stop-color="#fff"/><stop offset="100%" stop-color="#036"/></linearGradient></defs><path style="fill:url(#g8)" stroke="#036" stroke-width="2" d="M145.0,0 Q155.0,0 155.0,10 L155.0,57.65625 Q155.0,67.65625 145.0,67.65625 L10,67.65625 Q0,67.65625 0,57.65625 L0,10 Q0,0 10,0 Z"/><g><text style="text-anchor:middle" x="77.5" y="-2" transform="translate(0.0,39.828125)"><tspan fill="#FFF" font-family="Arial" font-size="14" font-weight="bold" xml:space="preserve">/root</tspan></text></g></g><g transform="translate(20.875,372.90625) rotate(0.0 52.125 75.09375)"><defs><linearGradient id="g9" x1="50%" x2="50%" y1="-25%" y2="100%"><stop offset="0%" stop-color="#fff"/><stop offset="100%" stop-color="#990"/></linearGradient></defs><path style="fill:url(#g9)" stroke="#990" stroke-width="2" d="M94.25,0 Q104.25,0 104.25,10 L104.25,140.1875 Q104.25,150.1875 94.25,150.1875 L10,150.1875 Q0,150.1875 0,140.1875 L0,10 Q0,0 10,0 Z"/><g><text style="text-anchor:middle" x="52.125" y="-2" transform="translate(0.0,80.09375)"><tspan fill="#333" font-family="Arial" font-size="13" xml:space="preserve">sophie</tspan></text></g></g><g><path fill="none" stroke="#ccc" stroke-dasharray="23 0" stroke-width="2" d="M0.0,0.0 L0.0,73.52499999999998 Q0.0,83.52499999999998 -10.0,83.52499999999998 L-33.875,83.52499999999998" transform="translate(159.0,334.4375)"/></g><g><path fill="none" stroke="red" stroke-dasharray="23 0" stroke-width="2" d="M0.0,0.0 L0.0,-84.75 Q0.0,-94.75 10.0,-94.75 L32.0,-94.75" transform="translate(72.0,383.75)"/><g transform="translate(72.0,383.75) translate(35.0,-94.75) rotate(180.0)"><polygon fill="#FFF" stroke="red" stroke-width="2" points="2 0 9 -3 9 3"/></g></g><g transform="translate(107.0,273.75) rotate(0.0 50.0 15.25)"><defs><linearGradient id="g12" x1="50%" x2="50%" y1="-25%" y2="100%"><stop offset="0%" stop-color="#fff"/><stop offset="100%" stop-color="#69c"/></linearGradient></defs><path style="fill:url(#g12)" stroke="#69c" stroke-width="2" d="M90.0,0 Q100.0,0 100.0,10 L100.0,20.5 Q100.0,30.5 90.0,30.5 L10,30.5 Q0,30.5 0,20.5 L0,10 Q0,0 10,0 Z"/><g><text style="text-anchor:middle" x="50" y="-2" transform="translate(0.0,20.25)"><tspan fill="#333" font-family="Arial" font-size="12" font-weight="bold" xml:space="preserve">/root/pypi</tspan></text></g></g><g><path fill="none" stroke="red" stroke-dasharray="23 0" stroke-width="2" d="M0.0,0.0 L-25.25,0.0 Q-35.25,0.0 -35.25,-10.0 L-35.25,-24.0 Q-35.25,-34.0 -45.25,-34.0 L-67.5,-34.0" transform="translate(188.0,524.0)"/><g transform="translate(188.0,524.0) translate(-70.5,-34.0) rotate(360.0)"><polygon fill="#FFF" stroke="red" stroke-width="2" points="2 0 9 -3 9 3"/></g></g><g><path fill="none" stroke="red" stroke-dasharray="23 0" stroke-width="2" d="M0.0,0.0 L0.0,-10.25 Q0.0,-20.25 0.0,-20.25 L0.0,-20.25 Q0.0,-20.25 0.0,-20.25 L0.0,-37.5" transform="translate(72.0,468.75)"/><g transform="translate(72.0,468.75) translate(0.0,-40.5) rotate(450.0)"><polygon fill="#FFF" stroke="red" stroke-width="2" points="2 0 9 -3 9 3"/></g></g><g transform="translate(239.0,412.0)"><line x1="0" x2="0" y1="2" y2="23.25" stroke="red" stroke-dasharray="23 0" stroke-width="2"/><g transform="translate(0.0,0.0) rotate(90.0)"><polygon fill="#FFF" stroke="red" stroke-width="2" points="2 0 9 -3 9 3"/></g></g><g transform="translate(238.0,479.0)"><line x1="0" x2="0" y1="2" y2="25.25" stroke="red" stroke-dasharray="23 0" stroke-width="2"/><g transform="translate(0.0,0.0) rotate(90.0)"><polygon fill="#FFF" stroke="red" stroke-width="2" points="2 0 9 -3 9 3"/></g></g><g transform="translate(189.0,362.25) rotate(0.0 50.0 24.75)"><defs><linearGradient id="g17" x1="50%" x2="50%" y1="-25%" y2="100%"><stop offset="0%" stop-color="#fff"/><stop offset="100%" stop-color="#993"/></linearGradient></defs><path style="fill:url(#g17)" stroke="#993" stroke-width="2" d="M90.0,0 Q100.0,0 100.0,10 L100.0,39.5 Q100.0,49.5 90.0,49.5 L10,49.5 Q0,49.5 0,39.5 L0,10 Q0,0 10,0 Z"/><g><text style="text-anchor:middle" x="50" y="-2" transform="translate(0.0,29.75)"><tspan fill="#000" font-family="Arial" font-size="13" xml:space="preserve">/emilie/prod</tspan></text></g></g><g transform="translate(188.0,435.25) rotate(0.0 50.0 21.75)"><defs><linearGradient id="g18" x1="50%" x2="50%" y1="-25%" y2="100%"><stop offset="0%" stop-color="#fff"/><stop offset="100%" stop-color="#993"/></linearGradient></defs><path style="fill:url(#g18)" stroke="#993" stroke-width="2" d="M90.0,0 Q100.0,0 100.0,10 L100.0,33.5 Q100.0,43.5 90.0,43.5 L10,43.5 Q0,43.5 0,33.5 L0,10 Q0,0 10,0 Z"/><g><text style="text-anchor:middle" x="50" y="-2" transform="translate(0.0,26.75)"><tspan fill="#000" font-family="Arial" font-size="13" xml:space="preserve">/emilie/dev</tspan></text></g></g><g transform="translate(188.0,504.25) rotate(0.0 50.0 19.75)"><defs><linearGradient id="g19" x1="50%" x2="50%" y1="-25%" y2="100%"><stop offset="0%" stop-color="#fff"/><stop offset="100%" stop-color="#993"/></linearGradient></defs><path style="fill:url(#g19)" stroke="#993" stroke-width="2" d="M90.0,0 Q100.0,0 100.0,10 L100.0,29.5 Q100.0,39.5 90.0,39.5 L10,39.5 Q0,39.5 0,29.5 L0,10 Q0,0 10,0 Z"/><g><text style="text-anchor:middle" x="50" y="-2" transform="translate(0.0,24.75)"><tspan fill="#000" font-family="Arial" font-size="13" xml:space="preserve">/emilie/fiddle</tspan></text></g></g><g transform="translate(28.5,468.75) rotate(0.0 44.5 21.25)"><defs><linearGradient id="g20" x1="50%" x2="50%" y1="-25%" y2="100%"><stop offset="0%" stop-color="#fff"/><stop offset="100%" stop-color="#993"/></linearGradient></defs><g><path fill="#A8A8A8" fill-opacity=".6" stroke="#A8A8A8" stroke-opacity=".6" stroke-width="0" d="M79.0,0 Q89.0,0 89.0,10 L89.0,32.5 Q89.0,42.5 79.0,42.5 L10,42.5 Q0,42.5 0,32.5 L0,10 Q0,0 10,0 Z" transform="translate(4.0,4.0)"/></g><path style="fill:url(#g20)" stroke="#993" stroke-width="2" d="M79.0,0 Q89.0,0 89.0,10 L89.0,32.5 Q89.0,42.5 79.0,42.5 L10,42.5 Q0,42.5 0,32.5 L0,10 Q0,0 10,0 Z"/><g><text style="text-anchor:middle" x="44.5" y="-2" transform="translate(0.0,26.25)"><tspan fill="#000" font-family="Arial" font-size="13" xml:space="preserve">/sophie/dev</tspan></text></g></g><g transform="translate(25.5,383.75) rotate(0.0 46.5 22.25)"><defs><linearGradient id="g21" x1="50%" x2="50%" y1="-25%" y2="100%"><stop offset="0%" stop-color="#fff"/><stop offset="100%" stop-color="#993"/></linearGradient></defs><g><path fill="#A8A8A8" fill-opacity=".6" stroke="#A8A8A8" stroke-opacity=".6" stroke-width="0" d="M83.0,0 Q93.0,0 93.0,10 L93.0,34.5 Q93.0,44.5 83.0,44.5 L10,44.5 Q0,44.5 0,34.5 L0,10 Q0,0 10,0 Z" transform="translate(4.0,4.0)"/></g><path style="fill:url(#g21)" stroke="#993" stroke-width="2" d="M83.0,0 Q93.0,0 93.0,10 L93.0,34.5 Q93.0,44.5 83.0,44.5 L10,44.5 Q0,44.5 0,34.5 L0,10 Q0,0 10,0 Z"/><g><text style="text-anchor:middle" x="46.5" y="-2" transform="translate(0.0,27.25)"><tspan fill="#000" font-family="Arial" font-size="13" xml:space="preserve">/sophie/prod</tspan></text></g></g><g><path fill="none" stroke="red" stroke-dasharray="23 0" stroke-width="2" d="M0.0,0.0 L14.0,0.0 Q24.0,0.0 24.0,-10.0 L24.0,-31.375 Q24.0,-41.375 14.0,-41.375 L-122.0,-41.375 Q-132.0,-41.375 -132.0,-51.375 L-132.0,-79.75" transform="translate(289.0,387.0)"/><g transform="translate(289.0,387.0) translate(-132.0,-82.75) rotate(450.0)"><polygon fill="#FFF" stroke="red" stroke-width="2" points="2 0 9 -3 9 3"/></g></g><g><path fill="none" stroke="#ccc" stroke-dasharray="23 0" stroke-width="2" d="M0.0,0.0 L0.0,72.50625000000002 Q0.0,82.50625000000002 10.0,82.50625000000002 L23.0,82.50625000000002" transform="translate(159.0,334.4375)"/></g><g transform="translate(244.0,263.217791411043) rotate(0.0 39.0 36.78220858895702)"><image width="71" height="80" preserveAspectRatio="none" xlink:href="../_static/logo.svg"/></g><g transform="translate(339.0,411.0) rotate(0.0 42.0 25.0)"><defs><linearGradient id="g25" x1="50%" x2="50%" y1="-25%" y2="100%"><stop offset="0%" stop-color="#fff"/><stop offset="100%" stop-color="#999"/></linearGradient></defs><polygon style="fill:url(#g25)" stroke="#333" stroke-width="2" points="0 15 59 15 59 0 84 25 59 50 59 35 0 35"/><g><text style="text-anchor:middle" x="42" y="-3" transform="translate(0.0,33.0)"><tspan fill="#000" font-family="Arial" font-size="18" font-style="italic" font-weight="bold" xml:space="preserve">sync</tspan></text></g></g><defs><linearGradient xmlns:xlink="http://www.w3.org/1999/xlink" id="SVGIDlaptop_1_" x1="1.024" x2="87.73" y1="63.336" y2="63.336" gradientUnits="userSpaceOnUse" xlink:actuate="onLoad" xlink:show="other" xlink:type="simple"><stop style="stop-color:#d2d2d2" offset="0"/><stop style="stop-color:#4b4b4b" offset="1"/></linearGradient><linearGradient xmlns:xlink="http://www.w3.org/1999/xlink" id="SVGIDlaptop_2_" x1="48.232" x2="66.106" y1="50.889" y2="75.749" gradientTransform="matrix(-1 0 0 1 101.9824 0)" gradientUnits="userSpaceOnUse" xlink:actuate="onLoad" xlink:show="other" xlink:type="simple"><stop style="stop-color:#616161" offset="0"/><stop style="stop-color:#a1a1a1" offset=".499"/><stop style="stop-color:#dedede" offset="1"/></linearGradient><linearGradient xmlns:xlink="http://www.w3.org/1999/xlink" id="SVGIDlaptop_3_" x1="57.579" x2="78.345" y1="68.263" y2="68.263" gradientTransform="matrix(-1 0 0 1 101.9824 0)" gradientUnits="userSpaceOnUse" xlink:actuate="onLoad" xlink:show="other" xlink:type="simple"><stop style="stop-color:#fff" offset="0"/><stop style="stop-color:#fdfdfd" offset=".482"/><stop style="stop-color:#f6f6f6" offset=".655"/><stop style="stop-color:#ebebeb" offset=".779"/><stop style="stop-color:#dadada" offset=".879"/><stop style="stop-color:#c4c4c4" offset=".964"/><stop style="stop-color:#b8b8b8" offset="1"/></linearGradient><linearGradient xmlns:xlink="http://www.w3.org/1999/xlink" id="SVGIDlaptop_4_" x1="57.835" x2="78.124" y1="68.416" y2="68.416" gradientTransform="matrix(-1 0 0 1 101.9824 0)" gradientUnits="userSpaceOnUse" xlink:actuate="onLoad" xlink:show="other" xlink:type="simple"><stop style="stop-color:#b8b8b8" offset=".006"/><stop style="stop-color:#909090" offset=".518"/><stop style="stop-color:#6e6e6e" offset="1"/></linearGradient><linearGradient xmlns:xlink="http://www.w3.org/1999/xlink" id="SVGIDlaptop_5_" x1="41.397" x2="42.636" y1="51.39" y2="53.431" gradientTransform="matrix(-1 0 0 1 101.9824 0)" gradientUnits="userSpaceOnUse" xlink:actuate="onLoad" xlink:show="other" xlink:type="simple"><stop style="stop-color:#5b5b5b" offset="0"/><stop style="stop-color:#6b6b6b" offset=".104"/><stop style="stop-color:#8c8c8c" offset=".351"/><stop style="stop-color:#a3a3a3" offset=".589"/><stop style="stop-color:#b1b1b1" offset=".81"/><stop style="stop-color:#b6b6b6" offset="1"/></linearGradient><linearGradient xmlns:xlink="http://www.w3.org/1999/xlink" id="SVGIDlaptop_6_" x1="24.517" x2="54.286" y1="16.24" y2="70.076" gradientTransform="matrix(-1 0 0 1 101.9824 0)" gradientUnits="userSpaceOnUse" xlink:actuate="onLoad" xlink:show="other" xlink:type="simple"><stop style="stop-color:#cacaca" offset="0"/><stop style="stop-color:#505050" offset="1"/></linearGradient><linearGradient xmlns:xlink="http://www.w3.org/1999/xlink" id="SVGIDlaptop_7_" x1="39.222" x2="94.882" y1="34.018" y2="34.018" gradientUnits="userSpaceOnUse" xlink:actuate="onLoad" xlink:show="other" xlink:type="simple"><stop style="stop-color:#babfc3" offset="0"/><stop style="stop-color:#5a7799" offset="1"/></linearGradient><linearGradient xmlns:xlink="http://www.w3.org/1999/xlink" id="SVGIDlaptop_8_" x1="43.924" x2="54.304" y1="68.674" y2="52.196" gradientUnits="userSpaceOnUse" xlink:actuate="onLoad" xlink:show="other" xlink:type="simple"><stop style="stop-color:#fff" offset="0"/><stop style="stop-color:#939393" offset="1"/></linearGradient><linearGradient xmlns:xlink="http://www.w3.org/1999/xlink" id="SVGIDlaptop_9_" x1="22.864" x2="77.559" y1="59.358" y2="59.358" gradientUnits="userSpaceOnUse" xlink:actuate="onLoad" xlink:show="other" xlink:type="simple"><stop style="stop-color:#939393" offset="0"/><stop style="stop-color:#191919" offset="1"/></linearGradient><symbol id="com.gliffy.newnetwork.home.Laptop" preserveAspectRatio="none" viewBox="0 0 100 92"><g id="Layer_0"><rect width="100" height="91.918" fill="none"/><path d="M86.809,67.297c0.769,0.54,3.179-0.356,4.23-4.48l8.359-27.934c1.325-4.223,0.638-5.471-3.871-8.283 L52.72,1.551c-2.068-1.23-5.454-2.366-6.112-0.757l-9.861,35.293c-0.24,0.86,0.44,2.431,1.207,2.881L86.809,67.297z"/><path d="M37.798,39.014c0,0,49.447,28.65,49.681,28.794c0.466,0.287,0.75,0.88,0.766,1.393 c0.021,0.758,0.03,1.846,0.03,2.604c0,0.998-0.872,1.451-1.566,1.85L55.961,91.359C55.242,91.773,54.281,92,53.251,92 c-1.035,0-2.005-0.229-2.729-0.65L1.201,62.756c-0.693-0.4-0.907-0.785-0.947-1.5c-0.102-1.823-0.701-3.734,0.398-4.64 L28.55,40.624c0.718-0.41,2.26-1.157,3.566-1.988C33.318,37.87,36.155,37.86,37.798,39.014z"/></g><g id="Layer_1"><rect width="100" height="91.918" fill="none"/><path fill="url(#SVGIDlaptop_1_)" d="M35.078,38.667c1.028,0,1.989,0.224,2.706,0.633l48.963,28.202c0.683,0.391,0.982,0.738,0.982,1.276 c0,0.538-0.439,0.896-1.123,1.286l-30.33,17.312c-0.709,0.405-1.656,0.627-2.672,0.627c-1.024,0-1.979-0.226-2.693-0.635 L2.08,59.277c-0.682-0.392-1.058-0.904-1.055-1.442s0.381-1.046,1.066-1.433l30.314-17.115 C33.114,38.887,34.064,38.667,35.078,38.667L35.078,38.667z"/><path fill="url(#SVGIDlaptop_2_)" d="M53.794,86.15c0.813,0,1.561-0.172,2.103-0.484l29.032-16.715c0.41-0.236,0.554-0.466,0.554-0.593 c0-0.125-0.144-0.356-0.554-0.592l-46.734-26.92c-0.548-0.316-1.307-0.49-2.133-0.49c-0.816,0-1.567,0.17-2.109,0.479L4.935,57.359 c-0.383,0.219-0.555,0.452-0.556,0.587c0,0.135,0.17,0.37,0.552,0.591l46.742,27.122C52.22,85.977,52.971,86.15,53.794,86.15 L53.794,86.15z"/><path fill="#D8D8D8" d="M31.854,78.529c-0.001,0.195,0.03,1.052,0.727,1.432l16.578,9.813c0.495,0.263,0.662-0.597,0.629-0.812 c-0.036-0.246,0.039-0.676-0.6-1.057l-16.927-9.931C31.998,77.827,31.856,78.335,31.854,78.529z"/><path fill="url(#SVGIDlaptop_3_)" d="M24.186,66.521c-0.661,0.384-0.734,0.965-0.16,1.298l10.759,6.249 c0.573,0.333,1.575,0.292,2.235-0.092l6.836-3.971c0.663-0.384,0.734-0.965,0.16-1.298l-10.758-6.249 c-0.574-0.334-1.574-0.292-2.236,0.093L24.186,66.521z"/><path fill="url(#SVGIDlaptop_4_)" d="M24.394,66.715c-0.647,0.375-0.717,0.943-0.158,1.269l10.513,6.106 c0.56,0.324,1.538,0.285,2.184-0.091l6.68-3.88c0.646-0.375,0.717-0.943,0.156-1.269l-10.512-6.105 c-0.56-0.326-1.538-0.285-2.186,0.091L24.394,66.715z"/><path fill="url(#SVGIDlaptop_5_)" d="M45.138,42.445l-1.859,1.174l-0.008,0.761l31.497,18.526l0.029-0.493c0,0,0.052-0.371,0.43-0.568 c0.438-0.229,1.105-0.551,1.257-0.637c0.345-0.191,0.72-0.544-0.057-1.01c-0.282-0.168-30.333-17.793-30.333-17.793L45.138,42.445z"/><path fill="#C9C9C9" d="M69.374,82.573c0,0.179,0.128,0.252,0.28,0.163l2.862-1.662c0.152-0.089,0.278-0.308,0.278-0.487v-0.792 c0-0.178-0.126-0.251-0.278-0.161l-2.862,1.661c-0.152,0.088-0.28,0.308-0.28,0.486V82.573z"/><path fill="#C9C9C9" d="M77.91,77.421c0,0.178,0.126,0.252,0.281,0.163l2.858-1.662c0.155-0.09,0.28-0.309,0.28-0.487v-0.793 c0-0.178-0.125-0.251-0.28-0.161l-2.858,1.661c-0.155,0.089-0.281,0.308-0.281,0.487V77.421z"/><path fill="#C9C9C9" d="M73.709,80.019c0,0.178,0.126,0.252,0.28,0.162l2.859-1.662c0.153-0.09,0.279-0.309,0.279-0.488V77.24 c0-0.179-0.126-0.252-0.279-0.162l-2.859,1.662c-0.154,0.088-0.28,0.309-0.28,0.485V80.019z"/><path fill="#FFF" d="M18.688,71.309c0,0.335,0.26,0.766,0.58,0.959c0.32,0.194,0.578,0.079,0.578-0.257 c0-0.335-0.258-0.765-0.578-0.959C18.948,70.859,18.688,70.973,18.688,71.309z"/><path fill="#D6D6D6" d="M21.309,72.741c0,0.226,0.181,0.513,0.405,0.643l6.801,3.951c0.224,0.129,0.405,0.052,0.405-0.173l0,0 c0-0.225-0.182-0.513-0.405-0.642l-6.801-3.951C21.49,72.439,21.309,72.517,21.309,72.741L21.309,72.741z"/><path fill="url(#SVGIDlaptop_6_)" d="M86.685,66.926c0.761,0.447,1.586,0.115,1.831-0.737l9.917-34.454 c0.245-0.853-0.178-1.914-0.941-2.36L48.708,0.878c-0.764-0.445-1.585-0.112-1.824,0.743l-9.688,34.471 c-0.241,0.855,0.187,1.918,0.949,2.365L86.685,66.926z"/><path fill="url(#SVGIDlaptop_7_)" d="M84.05,63.927c0.769,0.45,1.599,0.116,1.845-0.742l8.918-30.983c0.244-0.858-0.18-1.927-0.948-2.375 L49.837,4.108C49.068,3.66,48.242,3.996,48,4.854l-8.711,30.998c-0.241,0.861,0.189,1.933,0.955,2.382L84.05,63.927z"/><g><path fill="url(#SVGIDlaptop_8_)" d="M77.011,65.879c0.307-0.18,0.307-0.474,0.002-0.653L39.85,43.521 c-0.306-0.18-0.811-0.184-1.121-0.009l-15.947,9.007c-0.31,0.175-0.312,0.465-0.007,0.646l37.28,21.938 c0.307,0.181,0.81,0.182,1.117,0.004L77.011,65.879z"/><path fill="url(#SVGIDlaptop_9_)" d="M77.329,65.274L40.167,43.567c-0.308-0.179-0.812-0.182-1.121-0.008l-15.948,9.007 c-0.31,0.175-0.312,0.466-0.006,0.646l37.279,21.937c0.308,0.182,0.812,0.182,1.117,0.005l15.839-9.228 C77.636,65.747,77.636,65.453,77.329,65.274z M72.394,62.977l1.714,0.994c0.138,0.08,0.12,0.221-0.041,0.315l-0.479,0.279 c-0.161,0.093-0.405,0.104-0.542,0.022l-1.714-0.994c-0.137-0.081-0.12-0.221,0.041-0.315l0.481-0.279 C72.011,62.905,72.255,62.895,72.394,62.977z M30.141,54.988l0.48-0.279c0.161-0.093,0.404-0.103,0.542-0.022l1.712,0.994 c0.14,0.082,0.123,0.223-0.038,0.316l-0.48,0.278c-0.161,0.093-0.404,0.103-0.542,0.023l-1.712-0.996 C29.963,55.222,29.98,55.082,30.141,54.988z M29.79,54.785c-0.16,0.093-0.403,0.103-0.542,0.023l-1.712-0.995 c-0.14-0.081-0.122-0.221,0.039-0.315l0.48-0.279c0.16-0.093,0.404-0.104,0.542-0.021l1.712,0.994 c0.139,0.08,0.121,0.221-0.04,0.314L29.79,54.785z M32.619,55.05c-0.14-0.081-0.121-0.221,0.04-0.315l1.949-1.132 c0.16-0.094,0.403-0.104,0.543-0.023l1.688,0.982c0.14,0.08,0.122,0.222-0.038,0.315l-1.951,1.132 c-0.161,0.093-0.404,0.104-0.542,0.022L32.619,55.05z M58.144,60.235l-1.949,1.132c-0.16,0.094-0.404,0.104-0.542,0.022 l-1.688-0.98c-0.141-0.081-0.121-0.222,0.039-0.315l1.95-1.132c0.161-0.093,0.402-0.103,0.543-0.023l1.688,0.98 C58.322,60.001,58.305,60.142,58.144,60.235z M58.633,60.52c0.16-0.093,0.404-0.104,0.544-0.023l1.688,0.981 c0.14,0.081,0.123,0.222-0.038,0.315l-1.951,1.132c-0.161,0.092-0.402,0.104-0.543,0.022l-1.688-0.98 c-0.137-0.082-0.12-0.221,0.039-0.315L58.633,60.52z M55.464,58.678l-1.949,1.133c-0.161,0.093-0.403,0.104-0.544,0.024 l-1.688-0.981c-0.139-0.081-0.122-0.223,0.04-0.316l1.946-1.132c0.164-0.093,0.406-0.103,0.544-0.021l1.689,0.98 C55.643,58.444,55.626,58.584,55.464,58.678z M52.781,57.121l-1.946,1.132c-0.16,0.093-0.403,0.104-0.543,0.024l-1.689-0.982 c-0.139-0.081-0.121-0.222,0.039-0.314l1.95-1.133c0.161-0.092,0.404-0.103,0.543-0.022l1.688,0.98 C52.961,56.888,52.945,57.028,52.781,57.121z M50.103,55.565l-1.95,1.132c-0.16,0.094-0.404,0.104-0.542,0.022l-1.689-0.981 c-0.139-0.08-0.122-0.221,0.038-0.314l1.951-1.133c0.16-0.093,0.403-0.103,0.542-0.022l1.69,0.98 C50.281,55.331,50.264,55.471,50.103,55.565z M47.422,54.007l-1.95,1.132c-0.161,0.093-0.404,0.103-0.542,0.024l-1.688-0.981 c-0.139-0.081-0.123-0.223,0.038-0.315l1.951-1.133c0.16-0.093,0.403-0.103,0.542-0.022l1.689,0.981 C47.6,53.773,47.582,53.915,47.422,54.007z M44.741,52.451l-1.951,1.132c-0.16,0.094-0.402,0.104-0.542,0.023l-1.688-0.981 c-0.138-0.081-0.122-0.222,0.039-0.315l1.951-1.132c0.16-0.092,0.403-0.104,0.542-0.022l1.688,0.981 C44.919,52.217,44.902,52.357,44.741,52.451z M42.061,50.895l-1.95,1.132c-0.161,0.093-0.403,0.104-0.542,0.021l-1.688-0.98 c-0.139-0.08-0.123-0.221,0.04-0.315l1.95-1.132c0.16-0.093,0.403-0.103,0.542-0.023l1.688,0.98 C42.238,50.659,42.221,50.8,42.061,50.895z M39.636,52.649l1.688,0.981c0.14,0.081,0.123,0.222-0.037,0.315l-1.951,1.133 c-0.161,0.094-0.404,0.104-0.543,0.022l-1.688-0.981c-0.139-0.08-0.122-0.222,0.039-0.314l1.95-1.133 C39.254,52.579,39.497,52.568,39.636,52.649z M39.726,55.303l1.948-1.132c0.162-0.094,0.404-0.104,0.544-0.022l1.688,0.981 c0.14,0.08,0.123,0.222-0.039,0.315l-1.95,1.132c-0.161,0.093-0.403,0.103-0.542,0.023l-1.688-0.981 C39.547,55.538,39.564,55.396,39.726,55.303z M42.329,56.816l1.949-1.134c0.161-0.092,0.404-0.103,0.543-0.021l1.69,0.981 c0.137,0.08,0.12,0.22-0.04,0.314l-1.951,1.132c-0.16,0.093-0.403,0.104-0.542,0.023l-1.689-0.98 C42.151,57.051,42.169,56.909,42.329,56.816z M44.91,58.315l1.95-1.132c0.161-0.094,0.404-0.104,0.542-0.023l1.688,0.98 c0.14,0.082,0.123,0.222-0.039,0.315l-1.95,1.133c-0.161,0.093-0.404,0.103-0.542,0.022l-1.689-0.981 C44.732,58.549,44.75,58.409,44.91,58.315z M47.538,59.842l1.95-1.134c0.159-0.093,0.403-0.103,0.542-0.022l1.688,0.981 c0.139,0.08,0.123,0.222-0.04,0.315l-1.95,1.132c-0.16,0.094-0.403,0.104-0.543,0.022l-1.687-0.981 C47.359,60.075,47.376,59.934,47.538,59.842z M50.117,61.339l1.952-1.132c0.16-0.093,0.401-0.104,0.541-0.022l1.69,0.98 c0.137,0.081,0.12,0.221-0.04,0.315l-1.95,1.132c-0.16,0.094-0.402,0.104-0.543,0.023l-1.688-0.981 C49.941,61.574,49.958,61.433,50.117,61.339z M52.725,62.852l1.948-1.132c0.159-0.094,0.404-0.104,0.541-0.022l1.69,0.98 c0.139,0.08,0.121,0.221-0.04,0.314l-1.949,1.133c-0.159,0.093-0.403,0.103-0.542,0.022l-1.69-0.98 C52.545,63.087,52.562,62.945,52.725,62.852z M55.304,64.353l1.95-1.133c0.16-0.094,0.402-0.105,0.543-0.023l1.688,0.98 c0.141,0.081,0.121,0.222-0.037,0.314l-1.95,1.134c-0.162,0.092-0.403,0.103-0.543,0.021l-1.69-0.98 C55.125,64.586,55.144,64.446,55.304,64.353z M59.355,63.504c-0.139-0.08-0.119-0.22,0.039-0.314l1.95-1.133 c0.162-0.093,0.402-0.104,0.544-0.023l1.687,0.98c0.138,0.081,0.122,0.222-0.037,0.315l-1.951,1.133 c-0.16,0.093-0.402,0.104-0.543,0.022L59.355,63.504z M62.084,64.743l1.948-1.132c0.161-0.094,0.404-0.104,0.542-0.023l1.69,0.981 c0.139,0.081,0.12,0.222-0.04,0.314l-1.95,1.132c-0.159,0.093-0.403,0.104-0.541,0.023l-1.691-0.98 C61.904,64.977,61.923,64.835,62.084,64.743z M65.717,63.831c-0.138-0.081-0.12-0.223,0.04-0.315l1.948-1.131 c0.162-0.094,0.404-0.105,0.542-0.023l1.69,0.98c0.141,0.082,0.121,0.223-0.039,0.315l-1.949,1.133 c-0.161,0.092-0.403,0.104-0.543,0.022L65.717,63.831z M67.221,62.102l-1.95,1.133c-0.158,0.093-0.402,0.103-0.54,0.022 l-1.689-0.981c-0.14-0.08-0.123-0.221,0.04-0.314l1.948-1.132c0.162-0.094,0.404-0.104,0.541-0.024l1.691,0.98 C67.4,61.868,67.382,62.009,67.221,62.102z M64.546,60.547l-1.95,1.132c-0.163,0.093-0.403,0.103-0.544,0.023l-1.688-0.981 c-0.138-0.081-0.121-0.221,0.041-0.314l1.947-1.134c0.163-0.092,0.405-0.103,0.544-0.022l1.688,0.981 C64.723,60.312,64.706,60.454,64.546,60.547z M61.87,58.992l-1.95,1.134c-0.162,0.092-0.405,0.104-0.544,0.022l-1.688-0.98 c-0.141-0.082-0.123-0.22,0.038-0.314l1.949-1.132c0.162-0.093,0.404-0.104,0.544-0.023l1.688,0.98 C62.046,58.758,62.029,58.9,61.87,58.992z M59.191,57.438l-1.95,1.133c-0.158,0.093-0.402,0.104-0.542,0.022l-1.689-0.981 c-0.138-0.08-0.12-0.221,0.041-0.315l1.95-1.132c0.158-0.093,0.402-0.103,0.541-0.022l1.69,0.981 C59.37,57.204,59.353,57.344,59.191,57.438z M56.517,55.883l-1.95,1.133c-0.161,0.093-0.404,0.103-0.544,0.022l-1.688-0.98 c-0.14-0.081-0.121-0.222,0.038-0.316l1.952-1.132c0.159-0.093,0.401-0.103,0.542-0.021l1.688,0.981 C56.693,55.649,56.675,55.79,56.517,55.883z M53.839,54.329l-1.952,1.132c-0.157,0.093-0.401,0.104-0.54,0.023l-1.688-0.981 c-0.139-0.081-0.122-0.221,0.039-0.314l1.95-1.133c0.161-0.092,0.403-0.103,0.542-0.022l1.688,0.98 C54.017,54.095,53.999,54.236,53.839,54.329z M51.163,52.774l-1.951,1.132c-0.16,0.094-0.403,0.104-0.542,0.023l-1.688-0.981 c-0.139-0.08-0.121-0.222,0.039-0.315l1.95-1.132c0.16-0.093,0.404-0.103,0.543-0.022l1.687,0.981 C51.341,52.54,51.323,52.681,51.163,52.774z M48.485,51.219l-1.95,1.133c-0.16,0.093-0.404,0.103-0.542,0.023l-1.69-0.981 c-0.138-0.081-0.121-0.222,0.04-0.315l1.95-1.132c0.16-0.093,0.403-0.104,0.542-0.022l1.689,0.98 C48.664,50.986,48.646,51.126,48.485,51.219z M45.809,49.666l-1.951,1.132c-0.159,0.094-0.402,0.104-0.542,0.023l-1.688-0.981 c-0.14-0.081-0.122-0.222,0.038-0.314l1.95-1.132c0.162-0.094,0.405-0.103,0.542-0.023l1.689,0.981 C45.987,49.431,45.968,49.573,45.809,49.666z M43.131,48.111l-1.949,1.132c-0.161,0.093-0.404,0.104-0.542,0.022l-1.688-0.979 c-0.14-0.082-0.122-0.223,0.039-0.315l1.949-1.133c0.161-0.094,0.404-0.104,0.543-0.022l1.688,0.981 C43.31,47.876,43.292,48.018,43.131,48.111z M39.419,49.022c0.139,0.08,0.122,0.222-0.039,0.315l-1.95,1.132 c-0.161,0.093-0.403,0.104-0.543,0.022L35.2,49.51c-0.14-0.08-0.123-0.221,0.039-0.314l1.949-1.132 c0.161-0.093,0.404-0.104,0.542-0.022L39.419,49.022z M37.008,51.123l1.689,0.981c0.139,0.082,0.122,0.223-0.039,0.316 l-1.949,1.132c-0.161,0.094-0.403,0.104-0.542,0.023l-1.689-0.981c-0.139-0.081-0.122-0.221,0.039-0.315l1.95-1.132 C36.627,51.053,36.87,51.043,37.008,51.123z M35.239,56.235l1.951-1.133c0.16-0.093,0.403-0.103,0.542-0.021l1.689,0.981 c0.138,0.08,0.123,0.22-0.039,0.314l-1.95,1.133c-0.161,0.093-0.403,0.103-0.543,0.023l-1.688-0.98 C35.062,56.469,35.078,56.328,35.239,56.235z M37.866,57.759l1.95-1.132c0.161-0.093,0.404-0.103,0.542-0.022l1.688,0.981 c0.138,0.081,0.123,0.222-0.039,0.315l-1.95,1.132c-0.16,0.093-0.403,0.103-0.542,0.023l-1.688-0.98 C37.688,57.995,37.706,57.853,37.866,57.759z M40.447,59.26l1.95-1.132c0.162-0.094,0.403-0.104,0.542-0.023l1.689,0.98 c0.139,0.082,0.121,0.223-0.039,0.315l-1.951,1.133c-0.161,0.094-0.403,0.103-0.542,0.022l-1.689-0.981 C40.27,59.494,40.286,59.353,40.447,59.26z M43.052,60.772l1.95-1.132c0.16-0.094,0.403-0.103,0.542-0.023l1.688,0.98 c0.14,0.082,0.122,0.223-0.038,0.316l-1.951,1.132c-0.161,0.094-0.403,0.104-0.543,0.022l-1.688-0.981 C42.874,61.007,42.891,60.866,43.052,60.772z M45.633,62.271l1.951-1.133c0.159-0.093,0.403-0.103,0.542-0.022l1.689,0.981 c0.138,0.08,0.121,0.221-0.04,0.315l-1.95,1.132c-0.161,0.093-0.403,0.103-0.542,0.022l-1.688-0.98 C45.455,62.505,45.472,62.364,45.633,62.271z M48.259,63.796l1.951-1.132c0.162-0.093,0.402-0.103,0.544-0.022l1.687,0.98 c0.138,0.081,0.121,0.221-0.037,0.315l-1.952,1.132c-0.16,0.093-0.403,0.103-0.542,0.023l-1.688-0.981 C48.082,64.031,48.099,63.89,48.259,63.796z M50.842,65.296l1.949-1.132c0.161-0.094,0.404-0.104,0.542-0.023l1.688,0.98 c0.141,0.082,0.123,0.223-0.037,0.316l-1.95,1.132c-0.162,0.094-0.403,0.103-0.542,0.022l-1.689-0.981 C50.663,65.53,50.681,65.39,50.842,65.296z M53.444,66.809l1.952-1.132c0.159-0.094,0.401-0.105,0.541-0.023l1.689,0.98 c0.14,0.082,0.12,0.223-0.039,0.316l-1.949,1.132c-0.162,0.092-0.403,0.104-0.544,0.021l-1.688-0.979 C53.266,67.042,53.286,66.903,53.444,66.809z M56.026,68.308l1.95-1.132c0.16-0.093,0.403-0.103,0.542-0.022l1.689,0.981 c0.139,0.08,0.122,0.221-0.039,0.314l-1.951,1.133c-0.157,0.093-0.402,0.103-0.54,0.023l-1.69-0.98 C55.85,68.542,55.866,68.401,56.026,68.308z M60.175,67.144c-0.16,0.093-0.404,0.104-0.542,0.023l-1.69-0.981 c-0.139-0.081-0.121-0.223,0.041-0.315l1.95-1.133c0.158-0.092,0.402-0.103,0.54-0.022l1.69,0.98 c0.139,0.082,0.123,0.223-0.04,0.315L60.175,67.144z M60.548,67.394l1.951-1.134c0.16-0.092,0.401-0.103,0.542-0.022l1.689,0.981 c0.138,0.081,0.12,0.222-0.041,0.313l-1.949,1.132c-0.16,0.094-0.404,0.104-0.542,0.023l-1.688-0.981 C60.369,67.626,60.386,67.485,60.548,67.394z M64.697,66.631c-0.139-0.081-0.122-0.222,0.039-0.314l1.95-1.132 c0.161-0.093,0.402-0.105,0.542-0.023l1.688,0.98c0.138,0.082,0.122,0.222-0.039,0.315l-1.951,1.133 c-0.159,0.092-0.401,0.103-0.54,0.022L64.697,66.631z M68.394,65.386c-0.139-0.081-0.121-0.222,0.04-0.316l1.949-1.132 c0.16-0.094,0.403-0.104,0.542-0.022l1.69,0.981c0.139,0.079,0.121,0.221-0.04,0.314l-1.949,1.132 c-0.16,0.093-0.404,0.104-0.542,0.023L68.394,65.386z M69.654,61.384l1.714,0.995c0.137,0.081,0.121,0.222-0.041,0.315 l-0.479,0.28c-0.16,0.092-0.403,0.104-0.542,0.022l-1.714-0.994c-0.138-0.081-0.12-0.223,0.041-0.315l0.48-0.278 C69.271,61.315,69.517,61.305,69.654,61.384z M66.915,59.794l1.714,0.995c0.138,0.081,0.121,0.222-0.041,0.314l-0.48,0.279 c-0.158,0.095-0.402,0.104-0.542,0.024l-1.712-0.995c-0.139-0.081-0.12-0.222,0.039-0.315l0.48-0.279 C66.533,59.723,66.777,59.713,66.915,59.794z M64.177,58.203l1.712,0.995c0.14,0.081,0.122,0.222-0.039,0.315l-0.481,0.279 c-0.159,0.093-0.401,0.103-0.542,0.022l-1.712-0.995c-0.138-0.08-0.12-0.222,0.04-0.314l0.48-0.279 C63.795,58.133,64.038,58.123,64.177,58.203z M61.437,56.612l1.713,0.995c0.139,0.081,0.122,0.223-0.039,0.315l-0.48,0.279 c-0.16,0.093-0.403,0.103-0.54,0.023l-1.715-0.994c-0.138-0.081-0.121-0.222,0.04-0.316l0.48-0.279 C61.055,56.542,61.3,56.531,61.437,56.612z M58.696,55.022l1.716,0.994c0.138,0.082,0.121,0.222-0.041,0.314l-0.48,0.28 c-0.159,0.093-0.404,0.104-0.54,0.021l-1.714-0.995c-0.14-0.08-0.122-0.22,0.039-0.313l0.48-0.28 C58.316,54.951,58.561,54.941,58.696,55.022z M55.96,53.431l1.712,0.996c0.138,0.08,0.121,0.221-0.039,0.313l-0.481,0.279 c-0.16,0.093-0.402,0.104-0.541,0.022l-1.713-0.995c-0.138-0.081-0.122-0.222,0.04-0.315l0.479-0.278 C55.577,53.361,55.82,53.35,55.96,53.431z M53.221,51.84l1.712,0.994c0.139,0.082,0.12,0.222-0.039,0.316l-0.48,0.278 c-0.16,0.094-0.404,0.103-0.542,0.022l-1.713-0.994c-0.139-0.081-0.122-0.222,0.04-0.315l0.479-0.28 C52.839,51.769,53.081,51.759,53.221,51.84z M50.482,50.25l1.71,0.994c0.14,0.08,0.123,0.222-0.038,0.315l-0.481,0.278 c-0.158,0.094-0.403,0.104-0.541,0.023l-1.713-0.995c-0.14-0.081-0.12-0.221,0.039-0.315l0.481-0.279 C50.099,50.178,50.341,50.169,50.482,50.25z M47.742,48.658l1.712,0.995c0.139,0.08,0.121,0.221-0.04,0.314l-0.481,0.279 c-0.159,0.093-0.402,0.104-0.542,0.022l-1.712-0.994c-0.139-0.082-0.121-0.223,0.04-0.316l0.48-0.278 C47.359,48.588,47.602,48.577,47.742,48.658z M45.002,47.067l1.712,0.995c0.14,0.081,0.122,0.221-0.039,0.314l-0.479,0.279 c-0.161,0.093-0.404,0.103-0.542,0.023l-1.712-0.995c-0.14-0.08-0.123-0.222,0.038-0.314l0.48-0.279 C44.62,46.997,44.864,46.987,45.002,47.067z M42.263,45.476l1.712,0.995c0.139,0.081,0.121,0.221-0.039,0.314l-0.481,0.279 c-0.16,0.094-0.403,0.104-0.542,0.022l-1.712-0.994c-0.139-0.081-0.122-0.223,0.04-0.315l0.48-0.278 C41.882,45.405,42.125,45.396,42.263,45.476z M38.502,44.187l0.478-0.279c0.162-0.093,0.405-0.104,0.542-0.023l1.713,0.994 c0.139,0.082,0.122,0.223-0.038,0.316l-0.481,0.278c-0.161,0.093-0.404,0.103-0.542,0.022l-1.712-0.995 C38.324,44.422,38.34,44.28,38.502,44.187z M35.68,45.951l1.949-1.132c0.161-0.094,0.398-0.107,0.528-0.032l2.614,1.518 c0.131,0.077,0.107,0.214-0.053,0.306l-1.95,1.134c-0.161,0.092-0.396,0.106-0.528,0.031l-2.613-1.518 C35.495,46.182,35.518,46.045,35.68,45.951z M32.557,47.639l1.95-1.132c0.16-0.094,0.403-0.104,0.542-0.022l1.688,0.98 c0.141,0.081,0.123,0.222-0.037,0.315l-1.95,1.132c-0.162,0.094-0.405,0.103-0.542,0.024l-1.689-0.981 C32.378,47.873,32.397,47.732,32.557,47.639z M29.538,49.393l1.95-1.132c0.161-0.093,0.417-0.095,0.575-0.003l3.697,2.147 c0.158,0.091,0.155,0.241-0.005,0.333l-1.95,1.134c-0.161,0.092-0.417,0.093-0.575,0.003l-3.697-2.147 C29.375,49.635,29.377,49.486,29.538,49.393z M26.508,51.152l1.95-1.132c0.16-0.093,0.418-0.095,0.577-0.002l5.037,2.925 c0.157,0.092,0.156,0.243-0.004,0.335l-1.951,1.132c-0.161,0.094-0.418,0.094-0.577,0.003l-5.036-2.926 C26.346,51.396,26.348,51.246,26.508,51.152z M24.989,51.956l0.48-0.278c0.16-0.094,0.403-0.105,0.542-0.023l1.712,0.994 c0.14,0.081,0.121,0.223-0.039,0.316l-0.48,0.278c-0.161,0.093-0.404,0.104-0.542,0.023l-1.712-0.995 C24.811,52.189,24.83,52.048,24.989,51.956z M25.247,54.099l-1.713-0.994c-0.14-0.081-0.122-0.222,0.039-0.316l0.481-0.278 c0.16-0.093,0.402-0.104,0.542-0.023l1.712,0.994c0.138,0.081,0.12,0.223-0.04,0.315l-0.48,0.278 C25.627,54.169,25.385,54.18,25.247,54.099z M27.855,55.615l-1.712-0.994c-0.138-0.081-0.121-0.222,0.039-0.315l0.481-0.279 c0.161-0.092,0.403-0.103,0.542-0.022l1.712,0.994c0.139,0.082,0.122,0.222-0.04,0.315l-0.479,0.279 C28.237,55.685,27.995,55.695,27.855,55.615z M30.467,57.132l-1.711-0.996c-0.139-0.079-0.124-0.221,0.039-0.313l0.48-0.28 c0.161-0.093,0.403-0.103,0.542-0.022l1.712,0.995c0.139,0.081,0.121,0.222-0.039,0.314l-0.48,0.279 C30.849,57.201,30.606,57.212,30.467,57.132z M33.928,59.244l-2.415-1.403c-0.199-0.115-0.23-0.285-0.069-0.378l1.95-1.132 c0.161-0.093,0.451-0.075,0.65,0.041l2.416,1.403c0.199,0.115,0.229,0.284,0.069,0.377l-1.95,1.133 C34.419,59.376,34.126,59.359,33.928,59.244z M37.383,61.364l-2.416-1.403c-0.198-0.115-0.23-0.284-0.068-0.377l1.95-1.133 c0.16-0.093,0.451-0.075,0.649,0.04l2.415,1.403c0.199,0.116,0.23,0.286,0.07,0.378l-1.95,1.133 C37.874,61.498,37.582,61.479,37.383,61.364z M49.456,68.392l-11.118-6.458c-0.138-0.08-0.12-0.222,0.04-0.314l1.978-1.148 c0.161-0.093,0.403-0.103,0.542-0.023l11.117,6.457c0.14,0.08,0.122,0.222-0.039,0.315l-1.978,1.147 C49.839,68.462,49.596,68.472,49.456,68.392z M52.913,70.382l-2.417-1.402c-0.199-0.116-0.228-0.285-0.069-0.378l1.949-1.132 c0.162-0.095,0.453-0.075,0.652,0.041l2.414,1.401c0.199,0.117,0.229,0.286,0.068,0.378l-1.95,1.133 C53.403,70.518,53.111,70.499,52.913,70.382z M55.646,71.875l-1.688-0.981c-0.139-0.081-0.122-0.222,0.039-0.314l1.949-1.134 c0.162-0.092,0.403-0.103,0.541-0.021l1.69,0.98c0.139,0.081,0.121,0.222-0.039,0.314l-1.95,1.132 C56.028,71.945,55.786,71.955,55.646,71.875z M58.237,73.439l-1.688-0.981c-0.138-0.081-0.122-0.221,0.039-0.315l1.949-1.133 c0.161-0.092,0.405-0.102,0.543-0.021l1.688,0.981c0.142,0.08,0.124,0.221-0.037,0.314l-1.95,1.133 C58.62,73.51,58.377,73.52,58.237,73.439z M63.309,73.782l-1.952,1.132c-0.157,0.093-0.401,0.104-0.54,0.022l-1.69-0.98 c-0.138-0.082-0.12-0.222,0.04-0.314l1.95-1.133c0.159-0.093,0.404-0.103,0.542-0.023l1.69,0.981 C63.486,73.547,63.469,73.688,63.309,73.782z M66.338,72.021l-1.95,1.133c-0.16,0.093-0.418,0.094-0.578,0.002l-5.035-2.926 c-0.158-0.092-0.156-0.242,0.005-0.335l1.951-1.133c0.159-0.092,0.416-0.095,0.577-0.002l5.034,2.926 C66.501,71.778,66.499,71.929,66.338,72.021z M69.368,70.261l-1.95,1.132c-0.159,0.095-0.418,0.096-0.575,0.003l-3.696-2.147 c-0.156-0.09-0.154-0.24,0.007-0.333l1.949-1.133c0.159-0.092,0.418-0.094,0.576-0.003l3.695,2.148 C69.532,70.019,69.528,70.168,69.368,70.261z M72.397,68.501l-1.949,1.132c-0.159,0.094-0.397,0.107-0.528,0.031l-2.612-1.518 c-0.13-0.076-0.106-0.213,0.053-0.306l1.951-1.133c0.159-0.093,0.396-0.107,0.528-0.031l2.612,1.517 C72.582,68.27,72.559,68.408,72.397,68.501z M75.252,66.766l-1.948,1.132c-0.162,0.094-0.406,0.104-0.544,0.022l-1.688-0.98 c-0.141-0.081-0.12-0.222,0.037-0.314l1.952-1.133c0.16-0.094,0.401-0.103,0.542-0.023l1.688,0.981 C75.429,66.532,75.412,66.673,75.252,66.766z M76.807,65.877l-0.48,0.278c-0.16,0.093-0.403,0.104-0.542,0.023l-1.714-0.995 c-0.137-0.081-0.121-0.223,0.041-0.315l0.479-0.279c0.16-0.092,0.404-0.104,0.542-0.022l1.715,0.995 C76.984,65.642,76.967,65.784,76.807,65.877z"/></g></g></symbol></defs><g transform="translate(207.5,593.5) rotate(0.0 38.5 38.5)"><use width="77" height="77" fill="#036" xlink:href="#com.gliffy.newnetwork.home.Laptop"/><g><text style="text-anchor:middle" x="38.5" y="-3" transform="translate(0.0,100.0)"><tspan fill="#000" font-family="Arial" font-size="18" font-style="italic" font-weight="bold" xml:space="preserve">Sophie</tspan></text></g></g><g transform="translate(607.5,595.5) rotate(0.0 39.5 39.5)"><use width="79" height="79" fill="#036" xlink:href="#com.gliffy.newnetwork.home.Laptop"/><g><text style="text-anchor:middle" x="39.5" y="-3" transform="translate(0.0,102.0)"><tspan fill="#000" font-family="Arial" font-size="18" font-style="italic" font-weight="bold" xml:space="preserve">Emilie</tspan></text></g></g><g><path fill="none" stroke="#03c" stroke-dasharray="23 0" stroke-width="2" d="M-3.0,0.0 L-57.0,0.0 Q-67.0,0.0 -67.0,-10.0 L-67.0,-54.0" transform="translate(647.0,635.0)"/><g><path fill="none" stroke="#03c" stroke-width="2" d="M9.0,-5.0 L2.0,0 L9.0,5.0 M0,0z" transform="translate(647.0,635.0) translate(0.0,0.0) rotate(180.0)"/></g><g><path fill="none" stroke="#03c" stroke-width="2" d="M9.0,-5.0 L2.0,0 L9.0,5.0 M0,0z" transform="translate(647.0,635.0) translate(-67.0,-57.0) rotate(450.0)"/></g></g><g><path fill="none" stroke="#00f" stroke-dasharray="23 0" stroke-width="2" d="M-3.0,0.0 L-65.0,0.0 Q-75.0,0.0 -75.0,-10.0 L-75.0,-55.0" transform="translate(246.0,632.0)"/><g><path fill="none" stroke="#00f" stroke-width="2" d="M9.0,-5.0 L2.0,0 L9.0,5.0 M0,0z" transform="translate(246.0,632.0) translate(0.0,0.0) rotate(180.0)"/></g><g><path fill="none" stroke="#00f" stroke-width="2" d="M9.0,-5.0 L2.0,0 L9.0,5.0 M0,0z" transform="translate(246.0,632.0) translate(-75.0,-58.0) rotate(450.0)"/></g></g><g transform="translate(420.25,256.0) rotate(0.0 159.75 161.0)"><defs><linearGradient id="g30" x1="50%" x2="50%" y1="-25%" y2="100%"><stop offset="0%" stop-color="#fff"/><stop offset="100%" stop-color="#999"/></linearGradient></defs><rect style="fill:url(#g30)" width="319.5" height="322" stroke="#333" stroke-width="2"/></g><g transform="translate(586.0,356.359375) rotate(0.0 58.0 102.640625)"><defs><linearGradient id="g31" x1="50%" x2="50%" y1="-25%" y2="100%"><stop offset="0%" stop-color="#fff"/><stop offset="100%" stop-color="#963"/></linearGradient></defs><path style="fill:url(#g31)" stroke="#990" stroke-width="2" d="M106.0,0 Q116.0,0 116.0,10 L116.0,195.28125 Q116.0,205.28125 106.0,205.28125 L10,205.28125 Q0,205.28125 0,195.28125 L0,10 Q0,0 10,0 Z"/></g><g transform="translate(490.5,267.78125) rotate(0.0 77.5 33.328125)"><defs><linearGradient id="g32" x1="50%" x2="50%" y1="-25%" y2="100%"><stop offset="0%" stop-color="#fff"/><stop offset="100%" stop-color="#036"/></linearGradient></defs><path style="fill:url(#g32)" stroke="#036" stroke-width="2" d="M145.0,0 Q155.0,0 155.0,10 L155.0,56.65625 Q155.0,66.65625 145.0,66.65625 L10,66.65625 Q0,66.65625 0,56.65625 L0,10 Q0,0 10,0 Z"/><g><text style="text-anchor:middle" x="77.5" y="-2" transform="translate(0.0,39.328125)"><tspan fill="#FFF" font-family="Arial" font-size="14" font-weight="bold" xml:space="preserve">/root</tspan></text></g></g><g transform="translate(424.875,373.90625) rotate(0.0 52.125 75.09375)"><defs><linearGradient id="g33" x1="50%" x2="50%" y1="-25%" y2="100%"><stop offset="0%" stop-color="#fff"/><stop offset="100%" stop-color="#990"/></linearGradient></defs><path style="fill:url(#g33)" stroke="#990" stroke-width="2" d="M94.25,0 Q104.25,0 104.25,10 L104.25,140.1875 Q104.25,150.1875 94.25,150.1875 L10,150.1875 Q0,150.1875 0,140.1875 L0,10 Q0,0 10,0 Z"/><g><text style="text-anchor:middle" x="52.125" y="-2" transform="translate(0.0,80.09375)"><tspan fill="#333" font-family="Arial" font-size="13" xml:space="preserve">sophie</tspan></text></g></g><g><path fill="none" stroke="#ccc" stroke-dasharray="23 0" stroke-width="2" d="M0.0,0.0 L0.0,74.52499999999998 Q0.0,84.52499999999998 -10.0,84.52499999999998 L-38.875,84.52499999999998" transform="translate(568.0,334.4375)"/></g><g><path fill="none" stroke="red" stroke-dasharray="23 0" stroke-width="2" d="M0.0,0.0 L0.0,-85.75 Q0.0,-95.75 10.0,-95.75 L38.0,-95.75" transform="translate(475.0,385.75)"/><g transform="translate(475.0,385.75) translate(41.0,-95.75) rotate(180.0)"><polygon fill="#FFF" stroke="red" stroke-width="2" points="2 0 9 -3 9 3"/></g></g><g transform="translate(516.0,274.75) rotate(0.0 50.0 15.25)"><defs><linearGradient id="g36" x1="50%" x2="50%" y1="-25%" y2="100%"><stop offset="0%" stop-color="#fff"/><stop offset="100%" stop-color="#69c"/></linearGradient></defs><path style="fill:url(#g36)" stroke="#69c" stroke-width="2" d="M90.0,0 Q100.0,0 100.0,10 L100.0,20.5 Q100.0,30.5 90.0,30.5 L10,30.5 Q0,30.5 0,20.5 L0,10 Q0,0 10,0 Z"/><g><text style="text-anchor:middle" x="50" y="-2" transform="translate(0.0,20.25)"><tspan fill="#333" font-family="Arial" font-size="12" font-weight="bold" xml:space="preserve">/root/pypi</tspan></text></g></g><g><path fill="none" stroke="red" stroke-dasharray="23 0" stroke-width="2" d="M0.0,0.0 L-25.75,0.0 Q-35.75,0.0 -35.75,-10.0 L-35.75,-24.0 Q-35.75,-34.0 -45.75,-34.0 L-68.5,-34.0" transform="translate(592.0,525.0)"/><g transform="translate(592.0,525.0) translate(-71.5,-34.0) rotate(360.0)"><polygon fill="#FFF" stroke="red" stroke-width="2" points="2 0 9 -3 9 3"/></g></g><g><path fill="none" stroke="red" stroke-dasharray="23 0" stroke-width="2" d="M0.0,0.0 L0.0,-9.875 Q0.0,-19.75 0.0,-19.75 L0.0,-19.75 Q0.0,-19.75 0.0,-19.75 L0.0,-36.5" transform="translate(475.0,469.75)"/><g transform="translate(475.0,469.75) translate(0.0,-39.5) rotate(450.0)"><polygon fill="#FFF" stroke="red" stroke-width="2" points="2 0 9 -3 9 3"/></g></g><g transform="translate(643.0,413.0)"><line x1="0" x2="0" y1="2" y2="23.25" stroke="red" stroke-dasharray="23 0" stroke-width="2"/><g transform="translate(0.0,0.0) rotate(90.0)"><polygon fill="#FFF" stroke="red" stroke-width="2" points="2 0 9 -3 9 3"/></g></g><g transform="translate(642.0,480.0)"><line x1="0" x2="0" y1="2" y2="25.25" stroke="red" stroke-dasharray="23 0" stroke-width="2"/><g transform="translate(0.0,0.0) rotate(90.0)"><polygon fill="#FFF" stroke="red" stroke-width="2" points="2 0 9 -3 9 3"/></g></g><g transform="translate(593.0,363.25) rotate(0.0 50.0 24.75)"><defs><linearGradient id="g41" x1="50%" x2="50%" y1="-25%" y2="100%"><stop offset="0%" stop-color="#fff"/><stop offset="100%" stop-color="#993"/></linearGradient></defs><path style="fill:url(#g41)" stroke="#993" stroke-width="2" d="M90.0,0 Q100.0,0 100.0,10 L100.0,39.5 Q100.0,49.5 90.0,49.5 L10,49.5 Q0,49.5 0,39.5 L0,10 Q0,0 10,0 Z"/><g><text style="text-anchor:middle" x="50" y="-2" transform="translate(0.0,29.75)"><tspan fill="#000" font-family="Arial" font-size="13" xml:space="preserve">/emilie/prod</tspan></text></g></g><g transform="translate(592.0,436.25) rotate(0.0 50.0 21.75)"><defs><linearGradient id="g42" x1="50%" x2="50%" y1="-25%" y2="100%"><stop offset="0%" stop-color="#fff"/><stop offset="100%" stop-color="#993"/></linearGradient></defs><path style="fill:url(#g42)" stroke="#993" stroke-width="2" d="M90.0,0 Q100.0,0 100.0,10 L100.0,33.5 Q100.0,43.5 90.0,43.5 L10,43.5 Q0,43.5 0,33.5 L0,10 Q0,0 10,0 Z"/><g><text style="text-anchor:middle" x="50" y="-2" transform="translate(0.0,26.75)"><tspan fill="#000" font-family="Arial" font-size="13" xml:space="preserve">/emilie/dev</tspan></text></g></g><g transform="translate(592.0,505.25) rotate(0.0 50.0 19.75)"><defs><linearGradient id="g43" x1="50%" x2="50%" y1="-25%" y2="100%"><stop offset="0%" stop-color="#fff"/><stop offset="100%" stop-color="#993"/></linearGradient></defs><path style="fill:url(#g43)" stroke="#993" stroke-width="2" d="M90.0,0 Q100.0,0 100.0,10 L100.0,29.5 Q100.0,39.5 90.0,39.5 L10,39.5 Q0,39.5 0,29.5 L0,10 Q0,0 10,0 Z"/><g><text style="text-anchor:middle" x="50" y="-2" transform="translate(0.0,24.75)"><tspan fill="#000" font-family="Arial" font-size="13" xml:space="preserve">/emilie/fiddle</tspan></text></g></g><g transform="translate(431.5,469.75) rotate(0.0 44.5 21.25)"><defs><linearGradient id="g44" x1="50%" x2="50%" y1="-25%" y2="100%"><stop offset="0%" stop-color="#fff"/><stop offset="100%" stop-color="#993"/></linearGradient></defs><g><path fill="#A8A8A8" fill-opacity=".6" stroke="#A8A8A8" stroke-opacity=".6" stroke-width="0" d="M79.0,0 Q89.0,0 89.0,10 L89.0,32.5 Q89.0,42.5 79.0,42.5 L10,42.5 Q0,42.5 0,32.5 L0,10 Q0,0 10,0 Z" transform="translate(4.0,4.0)"/></g><path style="fill:url(#g44)" stroke="#993" stroke-width="2" d="M79.0,0 Q89.0,0 89.0,10 L89.0,32.5 Q89.0,42.5 79.0,42.5 L10,42.5 Q0,42.5 0,32.5 L0,10 Q0,0 10,0 Z"/><g><text style="text-anchor:middle" x="44.5" y="-2" transform="translate(0.0,26.25)"><tspan fill="#000" font-family="Arial" font-size="13" xml:space="preserve">/sophie/dev</tspan></text></g></g><g transform="translate(428.5,385.75) rotate(0.0 46.5 22.25)"><defs><linearGradient id="g45" x1="50%" x2="50%" y1="-25%" y2="100%"><stop offset="0%" stop-color="#fff"/><stop offset="100%" stop-color="#993"/></linearGradient></defs><g><path fill="#A8A8A8" fill-opacity=".6" stroke="#A8A8A8" stroke-opacity=".6" stroke-width="0" d="M83.0,0 Q93.0,0 93.0,10 L93.0,34.5 Q93.0,44.5 83.0,44.5 L10,44.5 Q0,44.5 0,34.5 L0,10 Q0,0 10,0 Z" transform="translate(4.0,4.0)"/></g><path style="fill:url(#g45)" stroke="#993" stroke-width="2" d="M83.0,0 Q93.0,0 93.0,10 L93.0,34.5 Q93.0,44.5 83.0,44.5 L10,44.5 Q0,44.5 0,34.5 L0,10 Q0,0 10,0 Z"/><g><text style="text-anchor:middle" x="46.5" y="-2" transform="translate(0.0,27.25)"><tspan fill="#000" font-family="Arial" font-size="13" xml:space="preserve">/sophie/prod</tspan></text></g></g><g><path fill="none" stroke="red" stroke-dasharray="23 0" stroke-width="2" d="M0.0,0.0 L14.0,0.0 Q24.0,0.0 24.0,-10.0 L24.0,-31.375 Q24.0,-41.375 14.0,-41.375 L-117.0,-41.375 Q-127.0,-41.375 -127.0,-51.375 L-127.0,-79.75" transform="translate(693.0,388.0)"/><g transform="translate(693.0,388.0) translate(-127.0,-82.75) rotate(450.0)"><polygon fill="#FFF" stroke="red" stroke-width="2" points="2 0 9 -3 9 3"/></g></g><g><path fill="none" stroke="#ccc" stroke-dasharray="23 0" stroke-width="2" d="M0.0,0.0 L0.0,73.50625000000002 Q0.0,83.50625000000002 10.0,83.50625000000002 L18.0,83.50625000000002" transform="translate(568.0,334.4375)"/></g><g transform="translate(653.0,264.217791411043) rotate(0.0 39.0 36.78220858895702)"><image width="71" height="80" preserveAspectRatio="none" xlink:href="../_static/logo.svg"/></g><g><g><text style="text-anchor:middle" x="102.5" y="-4" transform="translate(393.5,531.9166666666666) rotate(0.0 102.5 17.083333333333332) translate(0.0,28.083333333333332)"><tspan fill="#000" font-family="Arial" font-size="24" font-weight="bold" xml:space="preserve">devpi mirror</tspan></text></g></g><g><g><text style="text-anchor:middle" x="102.5" y="-4" transform="translate(-7.5,528.9166666666666) rotate(0.0 102.5 17.083333333333332) translate(0.0,28.083333333333332)"><tspan fill="#000" font-family="Arial" font-size="24" font-weight="bold" xml:space="preserve">devpi master</tspan></text></g></g></svg>